<svg xmlns="http://www.w3.org/2000/svg" xmlns:xlink="http://www.w3.org/1999/xlink" width="203" zoomAndPan="magnify" viewBox="0 0 152.25 112.499997" height="150" preserveAspectRatio="xMidYMid meet" version="1.2"><g id="a02dfaf2a5"><path style=" stroke:none;fill-rule:nonzero;fill:#000000;fill-opacity:1;" d="M 92.902344 9.015625 C 93.550781 9 94.265625 9.070312 94.765625 9.210938 C 95.226562 9.335938 95.808594 9.722656 96.296875 10.207031 C 96.78125 10.695312 97.179688 11.285156 97.320312 11.765625 C 97.457031 12.222656 97.515625 12.394531 97.433594 12.894531 C 97.351562 13.398438 97.113281 14.222656 96.628906 15.855469 C 96.394531 16.65625 96.03125 17.910156 95.828125 18.648438 C 95.628906 19.371094 95.261719 20.328125 95.046875 20.703125 C 94.785156 21.15625 94.5 21.902344 94.390625 22.441406 C 92.429688 31.855469 91.992188 34.382812 91.699219 37.910156 C 91.566406 39.554688 91.367188 41.273438 91.164062 42.648438 C 91.0625 43.335938 90.957031 43.941406 90.863281 44.402344 C 90.769531 44.863281 90.667969 45.199219 90.625 45.277344 C 90.304688 45.871094 90.3125 46.636719 90.484375 47.21875 C 90.570312 47.507812 90.695312 47.757812 90.898438 47.914062 C 91 47.996094 91.128906 48.042969 91.269531 48.039062 C 91.40625 48.039062 91.535156 47.984375 91.652344 47.886719 C 91.792969 47.769531 91.898438 47.597656 92.015625 47.382812 C 92.132812 47.171875 92.242188 46.925781 92.328125 46.679688 C 92.484375 46.242188 93.082031 44.890625 93.636719 43.726562 C 94.191406 42.558594 94.835938 41.203125 95.066406 40.710938 C 95.660156 39.453125 96.421875 38.257812 97.042969 37.582031 C 97.375 37.21875 97.859375 36.539062 98.277344 35.90625 C 98.488281 35.589844 98.675781 35.285156 98.816406 35.039062 C 98.886719 34.917969 98.949219 34.808594 98.992188 34.71875 C 99.03125 34.632812 99.0625 34.582031 99.066406 34.464844 C 99.074219 34.445312 99.09375 34.414062 99.109375 34.375 C 99.144531 34.296875 99.195312 34.1875 99.261719 34.054688 C 99.394531 33.792969 99.578125 33.449219 99.78125 33.089844 C 100.191406 32.359375 100.707031 31.269531 100.945312 30.632812 C 101.394531 29.445312 102.484375 27.144531 103.542969 25.066406 C 104.074219 24.03125 104.59375 23.042969 105.023438 22.28125 C 105.238281 21.898438 105.425781 21.574219 105.582031 21.324219 C 105.738281 21.074219 105.875 20.894531 105.925781 20.84375 C 106.992188 19.757812 108.453125 19.835938 109.640625 20.597656 C 110.828125 21.359375 111.6875 22.808594 111.460938 24.460938 C 111.226562 26.195312 110.195312 28.894531 108.269531 32.742188 C 106.445312 36.394531 104.480469 40.925781 103.789062 43.109375 C 103.578125 43.773438 103.195312 44.738281 102.957031 45.207031 C 102.695312 45.722656 102.226562 46.902344 101.894531 47.875 C 101.574219 48.8125 100.808594 50.578125 100.210938 51.753906 C 99.511719 53.140625 99.105469 54.09375 98.914062 54.898438 C 98.722656 55.703125 98.765625 56.363281 98.984375 57.089844 C 99.167969 57.707031 99.449219 58.289062 99.753906 58.722656 C 99.902344 58.941406 100.058594 59.121094 100.21875 59.253906 C 100.382812 59.390625 100.558594 59.492188 100.757812 59.492188 C 100.871094 59.492188 100.90625 59.460938 100.96875 59.429688 C 101.027344 59.398438 101.097656 59.359375 101.175781 59.3125 C 101.335938 59.210938 101.539062 59.074219 101.777344 58.90625 C 102.253906 58.566406 102.867188 58.105469 103.5 57.59375 C 104.761719 56.578125 106.519531 55.273438 107.378906 54.710938 C 110.046875 52.949219 111.476562 51.722656 113.136719 49.816406 C 114.078125 48.734375 115.21875 47.609375 116.289062 46.679688 C 117.355469 45.75 118.363281 45.007812 118.996094 44.703125 C 120.898438 43.78125 123.117188 44.496094 123.917969 46.265625 C 124.378906 47.277344 124.425781 48.175781 123.925781 49.375 C 123.425781 50.570312 122.355469 52.054688 120.582031 54.117188 C 120.191406 54.570312 118.785156 55.929688 117.175781 57.425781 C 115.5625 58.921875 113.726562 60.574219 112.441406 61.671875 C 111.574219 62.410156 110.195312 63.640625 109.359375 64.414062 C 108.539062 65.175781 107.4375 66.0625 106.972656 66.355469 C 106.433594 66.695312 105.859375 67.253906 105.617188 67.703125 C 105.433594 68.042969 104.859375 68.839844 104.375 69.414062 C 103.871094 70.015625 103.09375 71.082031 102.621094 71.808594 C 102.160156 72.523438 101.476562 73.515625 101.113281 73.996094 C 100.71875 74.519531 100.066406 75.664062 99.625 76.601562 C 97.945312 80.160156 96.929688 82.039062 96.316406 82.78125 C 95.929688 83.246094 95.1875 84.257812 94.648438 85.0625 C 93.34375 87.015625 91.605469 88.863281 87.425781 92.710938 C 86.855469 93.234375 86.378906 93.726562 86.03125 94.121094 C 85.859375 94.316406 85.71875 94.496094 85.617188 94.644531 C 85.519531 94.792969 85.4375 94.890625 85.4375 95.070312 C 85.4375 95.242188 85.339844 95.644531 85.226562 95.851562 C 85.132812 96.03125 85.101562 96.246094 85.09375 96.53125 C 85.085938 96.8125 85.109375 97.160156 85.15625 97.5625 C 85.257812 98.371094 85.464844 99.417969 85.78125 100.664062 C 85.992188 101.5 86.148438 102.414062 86.234375 103.199219 C 86.316406 103.980469 86.316406 104.648438 86.246094 104.921875 C 86.207031 105.089844 86.148438 105.191406 86.109375 105.230469 C 86.066406 105.269531 86.050781 105.277344 85.988281 105.265625 C 85.933594 105.253906 85.949219 105.273438 85.890625 105.167969 C 85.832031 105.0625 85.753906 104.828125 85.652344 104.414062 C 85.453125 103.582031 85.160156 102.015625 84.640625 99.113281 C 84.441406 97.992188 84.332031 96.511719 84.390625 95.761719 C 84.449219 94.960938 84.554688 94.484375 84.914062 93.933594 C 85.273438 93.378906 85.910156 92.746094 87.042969 91.726562 C 90 89.0625 92.796875 86.09375 94.125 84.199219 C 94.855469 83.152344 95.738281 81.902344 96.085938 81.410156 C 96.863281 80.316406 97.398438 79.3125 98.59375 76.699219 C 99.027344 75.753906 99.585938 74.703125 100.085938 73.863281 C 100.339844 73.441406 100.582031 73.078125 100.777344 72.800781 C 100.976562 72.527344 101.160156 72.332031 101.191406 72.3125 C 101.292969 72.25 101.320312 72.195312 101.386719 72.109375 C 101.453125 72.023438 101.53125 71.910156 101.617188 71.78125 C 101.789062 71.523438 101.988281 71.1875 102.1875 70.832031 C 102.574219 70.144531 103.183594 69.253906 103.496094 68.917969 C 103.851562 68.535156 104.425781 67.820312 104.78125 67.292969 C 105.097656 66.820312 105.875 66.019531 106.460938 65.582031 C 107.089844 65.113281 108.144531 64.214844 108.828125 63.570312 C 109.5 62.941406 110.808594 61.785156 111.726562 61.015625 C 113.78125 59.289062 117.972656 55.445312 119.277344 54.09375 C 120.058594 53.285156 120.960938 52.167969 121.714844 51.125 C 122.464844 50.085938 123.054688 49.15625 123.222656 48.605469 C 123.730469 46.90625 122.480469 45.1875 120.714844 45.191406 C 120.324219 45.191406 119.875 45.359375 119.351562 45.636719 C 118.832031 45.917969 118.238281 46.316406 117.605469 46.8125 C 116.34375 47.800781 114.925781 49.167969 113.605469 50.707031 C 112.128906 52.429688 110.832031 53.515625 107.851562 55.527344 C 106.78125 56.246094 105.308594 57.339844 104.550781 57.96875 C 103.417969 58.914062 102.695312 59.46875 102.148438 59.777344 C 101.597656 60.089844 101.226562 60.164062 100.707031 60.164062 C 100.121094 60.164062 99.734375 60.039062 99.390625 59.722656 C 99.042969 59.40625 98.742188 58.863281 98.417969 57.996094 C 98.011719 56.914062 97.890625 56.003906 98.097656 54.871094 C 98.304688 53.738281 98.855469 52.378906 99.820312 50.457031 C 100.359375 49.390625 100.914062 48.136719 101.078125 47.601562 C 101.222656 47.136719 101.730469 45.816406 102.1875 44.71875 C 102.652344 43.605469 103.09375 42.484375 103.195312 42.125 C 103.359375 41.550781 104.1875 39.554688 105.164062 37.335938 C 106.140625 35.117188 107.28125 32.636719 108.105469 30.988281 C 109.550781 28.089844 110.34375 26.097656 110.535156 24.628906 C 110.628906 23.890625 110.566406 23.28125 110.339844 22.769531 C 110.109375 22.257812 109.722656 21.863281 109.199219 21.539062 C 108.714844 21.242188 108.273438 21.046875 107.824219 21.066406 C 107.375 21.082031 106.949219 21.324219 106.53125 21.777344 C 105.695312 22.6875 104.78125 24.488281 103.320312 27.671875 C 100.480469 33.851562 99.21875 36.246094 97.839844 38.070312 C 96.660156 39.628906 95.535156 41.734375 93.355469 46.441406 C 93.089844 47.019531 92.800781 47.578125 92.558594 48.003906 C 92.4375 48.21875 92.328125 48.402344 92.238281 48.535156 C 92.148438 48.671875 92.0625 48.757812 92.070312 48.753906 C 91.8125 48.949219 91.535156 49.015625 91.234375 48.960938 C 90.929688 48.910156 90.597656 48.726562 90.277344 48.402344 C 90.007812 48.136719 89.867188 47.960938 89.789062 47.738281 C 89.707031 47.519531 89.683594 47.238281 89.683594 46.761719 C 89.683594 46.167969 89.828125 45.023438 89.996094 44.285156 C 90.496094 42.121094 91.03125 38.476562 91.03125 37.105469 C 91.03125 36.039062 91.1875 34.988281 92.253906 28.921875 C 92.605469 26.910156 93.019531 24.890625 93.417969 23.25 C 93.816406 21.613281 94.210938 20.324219 94.445312 19.859375 C 94.75 19.25 95.148438 18.113281 95.359375 17.261719 C 95.566406 16.433594 95.878906 15.328125 96.050781 14.84375 C 96.242188 14.300781 96.386719 13.4375 96.386719 12.847656 C 96.386719 12.402344 96.355469 12.078125 96.210938 11.773438 C 96.070312 11.464844 95.835938 11.195312 95.457031 10.816406 C 95.066406 10.425781 94.796875 10.1875 94.480469 10.046875 C 94.164062 9.90625 93.824219 9.886719 93.328125 9.886719 C 92.863281 9.886719 92.539062 9.914062 92.253906 10.019531 C 91.964844 10.125 91.742188 10.304688 91.492188 10.570312 C 90.664062 11.453125 89.789062 13.253906 89.496094 14.65625 C 89.367188 15.257812 89.050781 16.609375 88.796875 17.652344 C 88.539062 18.699219 88.203125 20.210938 88.042969 21.015625 C 87.890625 21.785156 87.441406 23.121094 87.066406 23.921875 C 86.867188 24.339844 86.6875 24.75 86.554688 25.082031 C 86.488281 25.246094 86.441406 25.390625 86.402344 25.507812 C 86.363281 25.625 86.332031 25.691406 86.332031 25.808594 C 86.332031 25.796875 86.324219 25.871094 86.304688 25.960938 C 86.28125 26.050781 86.246094 26.175781 86.207031 26.308594 C 86.125 26.578125 86.011719 26.914062 85.882812 27.246094 C 85.097656 29.320312 84.757812 30.65625 84.53125 32.648438 C 84.121094 36.246094 83.949219 37.445312 83.566406 39.222656 C 83.316406 40.382812 83.007812 41.59375 82.726562 42.550781 C 82.589844 43.03125 82.453125 43.445312 82.335938 43.757812 C 82.222656 44.074219 82.105469 44.300781 82.085938 44.324219 C 82.097656 44.3125 82.066406 44.347656 81.988281 44.375 C 81.910156 44.402344 81.789062 44.429688 81.644531 44.449219 C 81.359375 44.496094 80.960938 44.519531 80.488281 44.519531 C 79.832031 44.519531 79.4375 44.5 79.179688 44.4375 C 78.921875 44.375 78.792969 44.277344 78.585938 44.074219 C 78.355469 43.839844 78.269531 43.757812 78.191406 43.160156 C 78.109375 42.5625 78.066406 41.492188 78 39.480469 C 77.964844 38.3125 77.902344 37.144531 77.832031 36.210938 C 77.765625 35.277344 77.699219 34.605469 77.617188 34.296875 C 77.597656 34.230469 77.550781 33.820312 77.519531 33.230469 C 77.488281 32.636719 77.457031 31.828125 77.429688 30.839844 C 77.371094 28.863281 77.328125 26.164062 77.300781 23.007812 C 77.253906 17.351562 77.246094 14.664062 77.085938 13.183594 C 76.925781 11.699219 76.5625 11.382812 75.933594 10.6875 C 75.59375 10.3125 75.078125 10.125 74.496094 10.117188 C 73.910156 10.109375 73.246094 10.273438 72.527344 10.589844 C 71.46875 11.058594 70.769531 11.792969 70.347656 13.316406 C 69.925781 14.835938 69.734375 17.15625 69.578125 20.941406 C 69.519531 22.414062 69.449219 23.847656 69.382812 24.976562 C 69.316406 26.105469 69.25 26.949219 69.214844 27.148438 C 69.191406 27.3125 69.179688 27.652344 69.160156 28.195312 C 69.140625 28.738281 69.121094 29.464844 69.105469 30.324219 C 69.070312 32.046875 69.039062 34.308594 69.019531 36.679688 C 68.988281 41.539062 68.9375 44.234375 68.726562 46.070312 C 68.519531 47.90625 68.15625 48.875 67.472656 50.34375 C 66.304688 52.839844 64.5625 55.070312 62.660156 56.503906 C 60.644531 58.019531 59.519531 58.507812 57.367188 58.808594 C 55.914062 59.007812 54.964844 59.09375 54.253906 59.03125 C 53.539062 58.96875 53.058594 58.777344 52.484375 58.410156 C 52.011719 58.105469 51.761719 57.910156 51.460938 57.460938 C 51.15625 57.007812 50.808594 56.292969 50.210938 54.988281 C 48.617188 51.535156 47.828125 50.148438 46.738281 48.949219 C 46.304688 48.46875 45.601562 47.566406 45.195312 46.964844 C 43.769531 44.84375 41.773438 42.984375 39.664062 41.8125 C 38.550781 41.191406 37.023438 41.273438 35.804688 41.984375 C 35.007812 42.453125 34.5 42.949219 34.332031 43.535156 C 34.160156 44.125 34.359375 44.746094 34.847656 45.394531 C 35.6875 46.507812 38.433594 51.425781 38.839844 52.53125 C 39.316406 53.820312 40.371094 55.625 41.167969 56.511719 C 41.347656 56.710938 41.65625 57.179688 41.996094 57.765625 C 42.335938 58.355469 42.710938 59.070312 43.078125 59.804688 C 43.8125 61.277344 44.496094 62.839844 44.679688 63.550781 C 44.890625 64.382812 45.667969 66.28125 46.429688 67.851562 C 47.1875 69.40625 47.988281 71.089844 48.199219 71.558594 C 48.417969 72.054688 48.886719 72.992188 49.246094 73.675781 C 49.601562 74.347656 50.261719 75.652344 50.71875 76.570312 C 52.1875 79.53125 53.382812 81.347656 54.78125 82.71875 C 55.5 83.417969 56.378906 84.15625 57.207031 84.769531 C 58.03125 85.382812 58.792969 85.867188 59.308594 86.0625 C 59.542969 86.152344 59.949219 86.488281 60.105469 86.726562 C 60.261719 86.964844 60.519531 87.621094 60.746094 88.386719 C 60.972656 89.152344 61.179688 90.039062 61.304688 90.808594 C 61.398438 91.382812 61.679688 92.6875 61.933594 93.734375 C 62.332031 95.386719 62.886719 101.292969 62.875 103.988281 C 62.875 104.503906 62.753906 104.929688 62.632812 105.117188 C 62.570312 105.210938 62.519531 105.222656 62.535156 105.222656 C 62.546875 105.222656 62.535156 105.238281 62.472656 105.140625 C 62.488281 105.164062 62.46875 105.125 62.457031 105.074219 C 62.445312 105.027344 62.425781 104.957031 62.410156 104.867188 C 62.375 104.6875 62.335938 104.445312 62.296875 104.15625 C 62.21875 103.574219 62.136719 102.804688 62.058594 101.984375 C 61.902344 100.339844 61.773438 98.476562 61.765625 97.449219 C 61.757812 96.523438 61.527344 95.148438 61.1875 93.972656 C 61.035156 93.449219 60.894531 92.894531 60.796875 92.429688 C 60.695312 91.964844 60.632812 91.574219 60.632812 91.4375 C 60.632812 91.007812 60.484375 90.351562 60.285156 89.875 C 60.113281 89.457031 59.964844 88.855469 59.964844 88.660156 C 59.964844 88.253906 59.75 87.832031 59.460938 87.457031 C 59.171875 87.085938 58.8125 86.757812 58.414062 86.632812 C 57.769531 86.433594 56.433594 85.496094 55.179688 84.386719 C 53.925781 83.277344 52.710938 81.984375 52.179688 81.113281 C 51.550781 80.082031 50.582031 78.332031 49.777344 76.804688 C 49.371094 76.039062 49.011719 75.332031 48.75 74.800781 C 48.617188 74.53125 48.515625 74.304688 48.441406 74.144531 C 48.40625 74.0625 48.375 73.992188 48.359375 73.945312 C 48.34375 73.902344 48.34375 73.855469 48.34375 73.914062 C 48.34375 73.765625 48.289062 73.644531 48.21875 73.519531 C 48.148438 73.398438 48.054688 73.28125 47.941406 73.1875 C 47.902344 73.15625 47.789062 73.007812 47.6875 72.824219 C 47.589844 72.636719 47.488281 72.410156 47.421875 72.203125 C 47.339844 71.945312 47.117188 71.398438 46.792969 70.679688 C 46.472656 69.960938 46.066406 69.082031 45.648438 68.222656 C 45.234375 67.363281 44.839844 66.488281 44.546875 65.769531 C 44.25 65.050781 44.054688 64.453125 44.03125 64.28125 C 43.980469 63.953125 43.789062 63.453125 43.519531 62.816406 C 43.25 62.179688 42.894531 61.425781 42.519531 60.679688 C 42.148438 59.933594 41.753906 59.191406 41.398438 58.578125 C 41.042969 57.960938 40.734375 57.476562 40.496094 57.214844 C 39.570312 56.203125 38.847656 54.96875 38.183594 53.222656 C 37.84375 52.320312 37.34375 51.265625 37.03125 50.804688 C 36.769531 50.414062 36.160156 49.347656 35.699219 48.472656 C 35.226562 47.578125 34.484375 46.4375 34.003906 45.882812 C 33.453125 45.25 33.183594 44.886719 33.101562 44.5625 C 33.019531 44.238281 33.089844 43.890625 33.304688 43.230469 C 33.613281 42.269531 33.777344 42.078125 34.8125 41.394531 C 35.402344 41 35.695312 40.816406 36.0625 40.722656 C 36.429688 40.632812 36.917969 40.625 37.863281 40.640625 C 38.652344 40.648438 39.167969 40.679688 39.546875 40.75 C 39.921875 40.820312 40.164062 40.925781 40.445312 41.105469 C 40.859375 41.371094 41.492188 41.761719 41.863281 41.980469 C 42.359375 42.269531 43.269531 43.097656 44.308594 44.207031 C 45.347656 45.320312 46.535156 46.714844 47.648438 48.171875 C 47.910156 48.519531 48.511719 49.585938 49.175781 50.863281 C 49.839844 52.136719 50.574219 53.640625 51.152344 54.933594 C 51.875 56.546875 52.246094 57.066406 53.101562 57.671875 L 54.105469 58.375 C 54.152344 58.410156 54.203125 58.421875 54.257812 58.417969 L 56.359375 58.171875 C 58.589844 57.910156 60.167969 57.292969 61.605469 56.121094 C 61.996094 55.800781 62.632812 55.292969 63.007812 55.003906 C 63.238281 54.828125 63.542969 54.503906 63.894531 54.09375 C 64.25 53.683594 64.648438 53.191406 65.019531 52.707031 C 65.390625 52.21875 65.742188 51.742188 65.996094 51.351562 C 66.125 51.15625 66.226562 50.984375 66.304688 50.839844 C 66.382812 50.699219 66.445312 50.617188 66.445312 50.449219 C 66.445312 50.480469 66.453125 50.410156 66.480469 50.332031 C 66.507812 50.25 66.550781 50.144531 66.605469 50.023438 C 66.710938 49.785156 66.855469 49.480469 67.015625 49.1875 C 67.363281 48.550781 67.714844 47.558594 67.828125 46.902344 C 68.285156 44.175781 68.488281 39.195312 68.359375 34.125 C 68.273438 30.859375 68.320312 28.09375 68.457031 27.121094 C 68.589844 26.160156 68.773438 23.0625 68.886719 20.171875 C 69.03125 16.523438 69.265625 14.105469 69.671875 12.546875 C 70.074219 10.988281 70.617188 10.328125 71.417969 10.066406 C 71.875 9.917969 72.425781 9.683594 72.707031 9.507812 C 72.878906 9.402344 73.519531 9.207031 74.015625 9.132812 C 75.398438 8.925781 76.398438 9.414062 77.246094 10.738281 L 77.9375 11.820312 L 77.980469 22.160156 C 77.992188 25.449219 78.023438 28.132812 78.070312 30.066406 C 78.09375 31.035156 78.125 31.816406 78.15625 32.390625 C 78.1875 32.96875 78.210938 33.316406 78.265625 33.515625 C 78.332031 33.757812 78.414062 34.34375 78.488281 35.074219 C 78.566406 35.800781 78.636719 36.683594 78.691406 37.574219 C 78.808594 39.351562 78.863281 41.179688 78.796875 41.769531 C 78.730469 42.382812 78.820312 42.902344 79.089844 43.277344 C 79.359375 43.652344 79.804688 43.851562 80.332031 43.851562 C 80.792969 43.851562 81.195312 43.65625 81.484375 43.195312 C 81.777344 42.734375 82.007812 42.023438 82.308594 40.890625 C 83.023438 38.222656 83.480469 35.457031 83.839844 31.695312 C 83.992188 30.078125 84.644531 27.527344 85.304688 25.945312 C 85.464844 25.5625 85.765625 24.714844 85.988281 24.035156 C 86.207031 23.375 86.582031 22.539062 86.773438 22.265625 C 87.035156 21.886719 87.226562 21.316406 87.226562 20.871094 C 87.226562 20.542969 87.339844 19.949219 87.457031 19.640625 C 87.605469 19.242188 87.898438 18.085938 88.140625 16.972656 C 88.378906 15.867188 88.671875 14.519531 88.789062 13.976562 C 89.007812 13 89.4375 11.9375 89.933594 11.058594 C 90.429688 10.179688 91.007812 9.492188 91.4375 9.25 C 91.644531 9.132812 92.25 9.027344 92.902344 9.011719 Z M 92.902344 9.015625 "/><path style=" stroke:none;fill-rule:nonzero;fill:#000000;fill-opacity:1;" d="M 93.757812 8.929688 C 95.636719 9.039062 97.378906 10.617188 97.550781 12.5 C 97.554688 13.714844 96.890625 14.8125 96.675781 16.003906 C 96.179688 17.988281 95.542969 19.9375 94.679688 21.785156 C 94.066406 23.945312 93.792969 26.21875 93.261719 28.414062 C 92.4375 32.367188 91.863281 36.375 91.546875 40.402344 C 91.347656 42.304688 91.101562 44.230469 90.484375 46.035156 C 90.417969 46.710938 90.46875 47.75 91.261719 47.929688 C 92.074219 47.78125 92.074219 46.730469 92.453125 46.128906 C 93.601562 43.574219 94.699219 40.984375 96.15625 38.59375 C 97.285156 37.035156 98.636719 35.582031 99.320312 33.757812 C 100.621094 31.519531 101.417969 29.046875 102.605469 26.742188 C 103.621094 24.730469 104.601562 22.664062 105.839844 20.792969 C 106.945312 19.570312 109.019531 19.734375 110.144531 20.855469 C 111.570312 22.023438 111.953125 24.132812 111.253906 25.808594 C 109.929688 30.320312 107.378906 34.320312 105.617188 38.644531 C 104.40625 41.453125 103.488281 44.378906 102.242188 47.175781 C 101.519531 49.210938 100.65625 51.179688 99.667969 53.097656 C 98.914062 54.582031 98.53125 56.410156 99.410156 57.929688 C 99.695312 58.511719 100.113281 59.429688 100.890625 59.351562 C 102.011719 58.765625 102.933594 57.835938 103.96875 57.097656 C 106.128906 55.351562 108.558594 53.929688 110.679688 52.167969 C 113.507812 49.609375 115.792969 46.1875 119.316406 44.464844 C 121.371094 43.574219 124.039062 44.945312 124.320312 47.203125 C 124.632812 49.304688 123.097656 51.046875 121.941406 52.625 C 118.832031 56.445312 114.917969 59.488281 111.304688 62.804688 C 109.726562 64.25 108.085938 65.667969 106.390625 66.929688 C 105.542969 67.730469 105.050781 68.839844 104.246094 69.71875 C 102.28125 72.386719 100.316406 75.085938 98.976562 78.136719 C 98.015625 80.242188 96.921875 82.308594 95.449219 84.101562 C 93.285156 87.472656 90.3125 90.207031 87.386719 92.875 C 86.769531 93.578125 85.898438 94.179688 85.554688 95.046875 C 85.269531 95.882812 85.039062 96.75 85.253906 97.644531 C 85.640625 100.429688 86.921875 103.230469 86.105469 106.0625 C 85.136719 103.453125 84.835938 100.65625 84.390625 97.917969 C 84.152344 96.238281 84.117188 94.203125 85.554688 93.042969 C 88.351562 90.292969 91.378906 87.742188 93.722656 84.585938 C 95.484375 82.234375 97.175781 79.796875 98.324219 77.074219 C 99.21875 75.183594 100.152344 73.214844 101.574219 71.699219 C 102.34375 70.171875 103.425781 68.832031 104.5 67.53125 C 105.789062 65.625 107.902344 64.519531 109.464844 62.867188 C 113.113281 59.617188 116.949219 56.539062 120.207031 52.898438 C 121.34375 51.457031 122.664062 50.003906 123.226562 48.207031 C 123.523438 46.546875 121.753906 44.753906 120.085938 45.4375 C 117.988281 46.277344 116.390625 47.960938 114.820312 49.519531 C 113.113281 51.398438 111.449219 53.296875 109.269531 54.648438 C 106.976562 56.226562 104.742188 57.867188 102.613281 59.625 C 101.636719 60.304688 100.019531 60.648438 99.171875 59.605469 C 98.320312 58.546875 97.929688 57.109375 97.914062 55.75 C 98.066406 52.808594 100.027344 50.429688 100.929688 47.714844 C 102.210938 44.445312 103.410156 41.148438 104.792969 37.921875 C 106.429688 33.996094 108.546875 30.277344 110.050781 26.296875 C 110.542969 24.859375 110.863281 22.898438 109.484375 21.839844 C 108.773438 21.199219 107.546875 20.890625 106.808594 21.632812 C 105.648438 22.757812 105.074219 24.339844 104.316406 25.742188 C 102.347656 29.832031 100.675781 34.15625 98.0625 37.902344 C 95.605469 41.191406 94.300781 45.160156 92.25 48.675781 C 91.6875 49.425781 90.476562 48.96875 90.039062 48.292969 C 89.285156 47.402344 89.679688 46.125 89.75 45.070312 C 90.28125 42.390625 90.847656 39.710938 90.945312 36.972656 C 91.105469 34.078125 91.816406 31.253906 92.246094 28.390625 C 92.851562 25.003906 93.554688 21.609375 94.910156 18.4375 C 95.390625 16.792969 95.902344 15.144531 96.261719 13.484375 C 96.425781 12.523438 96.183594 11.492188 95.40625 10.878906 C 94.664062 9.933594 93.289062 9.738281 92.222656 10.144531 C 90.855469 10.953125 90.273438 12.582031 89.765625 14.019531 C 89.128906 16.457031 88.855469 18.945312 87.523438 21.285156 C 87.207031 22.820312 86.9375 24.277344 86.4375 25.726562 C 86 27.523438 85.539062 29.230469 85.136719 31.019531 C 84.566406 34.296875 84.214844 37.65625 83.273438 40.867188 C 82.945312 42.046875 82.839844 42.859375 81.972656 44.003906 C 81.0625 44.328125 80.195312 44.605469 79.242188 44.5625 C 78.265625 44.105469 77.945312 43.449219 78.042969 42.59375 C 77.875 39.496094 77.847656 36.378906 77.4375 33.300781 C 77.074219 26.53125 77.371094 19.746094 76.984375 12.980469 C 77.027344 11.5625 76.105469 9.960938 73.886719 9.769531 C 72.308594 10.117188 71.050781 10.285156 70.445312 12.878906 C 69.710938 15.367188 69.863281 18.132812 69.679688 20.714844 C 69.492188 25.273438 69.066406 29.820312 69.132812 34.390625 C 69.074219 38.511719 69.179688 42.65625 68.738281 46.761719 C 68.015625 50.605469 65.753906 54.125 62.742188 56.582031 C 61 58.003906 58.855469 58.878906 56.605469 59.011719 C 54.917969 59.277344 52.90625 59.269531 51.703125 57.898438 C 50.699219 56.726562 50.273438 55.140625 49.558594 53.792969 C 48.617188 51.738281 47.457031 49.761719 45.921875 48.109375 C 44.507812 46.117188 43.019531 44.15625 40.996094 42.769531 C 39.84375 41.839844 38.371094 41.183594 36.898438 41.621094 C 35.800781 41.941406 34.542969 42.671875 34.363281 43.898438 C 34.453125 45.179688 35.605469 46.050781 36.09375 47.191406 C 37.539062 49.546875 38.714844 52.050781 39.894531 54.535156 C 40.875 56.128906 42.1875 57.53125 42.902344 59.257812 C 43.988281 61.222656 44.683594 63.355469 45.46875 65.453125 C 47.386719 69.863281 49.5625 74.1875 51.808594 78.457031 C 53.046875 80.773438 54.710938 82.847656 56.808594 84.359375 C 57.726562 85.113281 58.84375 85.695312 59.851562 86.328125 C 60.769531 87.265625 60.875 88.707031 61.21875 89.925781 C 61.839844 92.753906 62.445312 95.585938 62.652344 98.476562 C 62.820312 100.453125 63.011719 102.449219 62.917969 104.425781 C 62.707031 105.007812 62.015625 104.386719 62.128906 103.953125 C 61.933594 101.78125 61.761719 99.582031 61.652344 97.394531 C 61.632812 95.066406 60.605469 92.941406 60.425781 90.636719 C 60.117188 89.769531 59.914062 88.863281 59.699219 87.996094 C 59.285156 87.019531 58.269531 86.703125 57.433594 86.210938 C 54.804688 84.5 52.496094 82.214844 51.070312 79.386719 C 50.101562 77.597656 49.109375 75.789062 48.253906 73.960938 C 48.167969 73.277344 47.40625 72.929688 47.332031 72.214844 C 46.179688 69.238281 44.46875 66.488281 43.648438 63.382812 C 42.597656 60.933594 41.46875 58.429688 39.699219 56.40625 C 38.308594 54.414062 37.800781 51.9375 36.421875 49.960938 C 35.492188 48.210938 34.460938 46.472656 33.183594 44.988281 C 32.703125 44.074219 33.226562 42.996094 33.679688 42.1875 C 34.59375 41.246094 35.832031 40.453125 37.207031 40.53125 C 38.542969 40.53125 39.992188 40.496094 41.089844 41.378906 C 43.621094 42.910156 45.5 45.351562 47.34375 47.648438 C 49.085938 49.976562 50.128906 52.738281 51.449219 55.316406 C 51.945312 56.667969 52.992188 57.675781 54.25 58.3125 C 56.867188 58.09375 59.722656 57.738281 61.726562 55.910156 C 63.496094 54.679688 64.820312 52.910156 66.039062 51.121094 C 66.503906 50.179688 66.855469 49.191406 67.34375 48.257812 C 67.949219 46.574219 67.960938 44.714844 68.140625 42.9375 C 68.59375 36.84375 67.828125 30.714844 68.574219 24.632812 C 68.914062 20.34375 68.585938 16.132812 69.746094 11.960938 C 70.058594 11.003906 70.851562 9.742188 71.863281 9.546875 C 73.214844 8.8125 74.75 8.761719 76.414062 9.628906 C 77.125 10.253906 77.703125 11.121094 78.027344 12.003906 C 78.117188 19.105469 77.929688 26.21875 78.328125 33.3125 L 78.878906 42.503906 C 78.949219 43.554688 80.316406 44.183594 81.097656 43.480469 C 82.019531 42.488281 82.125 41 82.507812 39.75 C 83.296875 36.5 84.121094 33.304688 84.539062 29.863281 C 84.832031 27.34375 85.503906 24.992188 86.46875 22.664062 C 86.625 21.851562 86.984375 21.164062 87.199219 20.328125 C 87.65625 18.589844 88.128906 16.816406 88.449219 15.011719 C 88.902344 12.941406 89.601562 10.710938 91.222656 9.28125 C 91.953125 8.832031 92.917969 8.953125 93.757812 8.9375 Z M 86.308594 25.382812 C 86.289062 25.347656 86.417969 25.480469 86.308594 25.382812 Z M 86.34375 25.410156 C 86.449219 25.519531 86.351562 25.375 86.34375 25.410156 Z M 86.316406 25.382812 C 86.335938 25.375 86.308594 25.402344 86.316406 25.382812 Z M 86.308594 25.382812 L 86.316406 25.382812 Z M 86.324219 25.410156 C 86.277344 25.46875 86.363281 25.433594 86.324219 25.410156 Z M 33.679688 43.960938 C 33.65625 44.246094 33.640625 44.566406 33.863281 44.78125 C 33.75 44.566406 33.710938 43.992188 33.679688 43.960938 Z M 45.832031 46.839844 C 46.265625 47.523438 46.78125 48.101562 47.289062 48.726562 C 46.78125 47.957031 46.210938 47.253906 45.628906 46.554688 C 45.695312 46.648438 45.761719 46.746094 45.832031 46.839844 Z M 45.832031 46.839844 "/></g></svg>